<svg xmlns="http://www.w3.org/2000/svg" xmlns:xlink="http://www.w3.org/1999/xlink" id="Layer_1" x="0px" y="0px" viewBox="0 0 260.3 78.8" style="enable-background:new 0 0 260.3 78.8;" xml:space="preserve"><style type="text/css">	.st0{clip-path:url(#SVGID_00000087381077065009925330000009290287827748401320_);}	.st1{fill:#FFFFFF;}	.st2{fill:#1693EC;}	.st3{clip-path:url(#SVGID_00000061458840973987235000000015280789643509066401_);}</style><g>	<g transform="translate(-280 -15)">		<g transform="translate(-148.896 -308.605)">			<g transform="translate(428.896 323.605)">				<g>					<defs>						<rect id="SVGID_1_" x="0" width="260.3" height="61.2"></rect>					</defs>					<clipPath id="SVGID_00000072987456423117987360000018347311638609123994_">						<use xlink:href="#SVGID_1_" style="overflow:visible;"></use>					</clipPath>					<g style="clip-path:url(#SVGID_00000072987456423117987360000018347311638609123994_);">						<path class="st1" d="M44.6,0.7c0-0.3-0.2-0.5-0.5-0.6c-0.3-0.1-0.6,0-1.1,0.3l0,0c-2.3,1.8-4.4,3.9-6.3,6.1       c0.5,0.1,1,0.3,1.5,0.6c1.4-1.6,2.9-3.1,4.5-4.5c-0.8,2.1-1.8,4.1-3,6c-0.1,0.2-0.3,0.4-0.4,0.6c-0.4,0.5-0.8,0.9-1.2,1.4       L38,10.7c-0.2,0.1-0.3,0.3-0.5,0.4c-0.2,0.2-0.5,0.3-0.8,0.2c-0.6-0.1-0.6-0.3-0.6-0.4c0-0.4,0.1-0.8,0.3-1.1       c-0.4-0.2-0.8-0.3-1.2-0.3c-0.2,0-0.4,0-0.6,0.1c-0.1,0.6-0.1,1.1,0,1.7c0,0.9,0.7,1.6,1.6,1.7c0.1,0,0.2,0,0.3,0       c0.3,0,0.7-0.1,1-0.2c0.4-0.2,0.8-0.4,1.1-0.6c0.1-0.1,0.2-0.2,0.3-0.3c0.5-0.4,0.9-0.9,1.3-1.4l0.1-0.1       C42.6,7.5,44.8,2.6,44.6,0.7"></path>						<path class="st2" d="M28.4,23.2h-5.8V34h5.8c3.8,0,6-1.9,6-5.5C34.5,25,32.3,23.2,28.4,23.2"></path>						<path class="st2" d="M22.7,40.8v16.5c2,0.9,4.3,0.1,5.5-1.7L38.5,38c-2.3,1.9-5.6,2.9-9.6,2.9L22.7,40.8z"></path>						<path class="st2" d="M0.6,39.6c-1.2,2.1-0.4,4.8,1.8,6c0,0,0,0,0,0L14,52.4V16.7L0.6,39.6z"></path>						<path class="st2" d="M45.1,25.9l-2.5-8.2l-0.1-0.3l-2.2-7.1l-0.1,0.1c-0.4,0.5-0.8,1-1.3,1.4c-0.1,0.1-0.2,0.2-0.3,0.3       c-0.4,0.3-0.7,0.5-1.1,0.6c-0.5,1.3-1.9,1.9-3.1,1.4c-1.3-0.5-1.9-1.9-1.4-3.1c0.5-1.3,1.9-1.9,3.1-1.4       c0.7,0.2,1.2,0.8,1.4,1.4c0.2-0.1,0.3-0.2,0.5-0.4l0.1-0.1c0.4-0.4,0.8-0.9,1.2-1.4c0.1-0.2,0.3-0.4,0.4-0.6       c-0.4-0.6-0.9-1.1-1.5-1.5c-0.5-0.3-1-0.5-1.5-0.6c-0.4-0.1-0.8-0.1-1.2,0l-8.7,1.9l-0.3,0.1l-8.4,1.8c-0.3,0-0.6,0.2-0.7,0.5       l-3.3,5.6h14.7c8.7,0,13.8,4.3,13.8,11.9c0,1.1-0.1,2.2-0.3,3.2l2.7-4.7C45.2,26.5,45.2,26.2,45.1,25.9"></path>					</g>				</g>			</g>			<path class="st1" d="M443.5,339.9v0.4l0.2-0.4H443.5z"></path>			<g transform="translate(428.896 323.605)">				<g>					<defs>						<rect id="SVGID_00000004544147713143668500000007574923393072118674_" x="0" width="260.3" height="61.2"></rect>					</defs>					<clipPath id="SVGID_00000047044991418076711750000013788425167862260628_">						<use xlink:href="#SVGID_00000004544147713143668500000007574923393072118674_" style="overflow:visible;"></use>					</clipPath>					<g style="clip-path:url(#SVGID_00000047044991418076711750000013788425167862260628_);">						<path class="st1" d="M28.4,34h-5.8V23.2h5.8c3.8,0,6,1.8,6,5.4C34.5,32.1,32.3,34,28.4,34 M28.9,16.3H14.2L14,16.7v35.6       l8.1,4.7c0.2,0.1,0.4,0.2,0.6,0.3V40.8h6.2c4.1,0,7.3-1,9.6-2.9l3.8-6.5c0.2-1.1,0.3-2.1,0.3-3.2       C42.7,20.6,37.6,16.3,28.9,16.3"></path>						<path class="st2" d="M49.9,29.1c1.6-2.7,4.5-4.4,7.6-4.3v6.8c-4.4-0.4-7.2,1.6-7.6,4.9v12h-7.5V25.1h7.5V29.1z"></path>						<path class="st2" d="M83,36.8c0,7.2-5.1,12-12.8,12c-7.7,0-12.8-4.8-12.8-12s5.1-11.9,12.8-11.9C77.8,24.8,83,29.6,83,36.8        M64.9,36.9c0,3.6,2.1,6.1,5.3,6.1c3.1,0,5.2-2.4,5.2-6.1c0-3.6-2.1-6.1-5.2-6.1C67,30.8,64.9,33.3,64.9,36.9"></path>						<path class="st2" d="M125.1,33.7v14.8h-7.5V35.8c0-2.8-1.6-4.5-4.1-4.5c-2.8,0.1-4.6,2.4-4.6,5.6v11.6h-7.5V35.8       c0-2.8-1.5-4.5-4-4.5c-2.9,0.1-4.7,2.4-4.7,5.6v11.6h-7.5V25.1h7.5V29c1.6-2.7,4.6-4.4,7.8-4.2c3.5-0.2,6.7,2,7.8,5.3       c1.4-3.3,4.7-5.5,8.3-5.3C121.8,24.8,125.1,28.3,125.1,33.7"></path>						<path class="st2" d="M152.4,36.8c0,7.2-5.1,12-12.8,12c-7.7,0-12.8-4.8-12.8-12s5.1-11.9,12.8-11.9       C147.2,24.8,152.4,29.6,152.4,36.8 M134.3,36.9c0,3.6,2.1,6.1,5.3,6.1c3.1,0,5.2-2.4,5.2-6.1c0-3.6-2.1-6.1-5.2-6.1       C136.4,30.8,134.3,33.3,134.3,36.9"></path>						<path class="st1" d="M205.2,33.7v14.8h-7.5V35.8c0-2.7-1.6-4.4-4.1-4.4c-3,0-4.8,2.3-4.8,5.6v11.5h-7.5V16.3h7.5V29       c1.7-2.7,4.7-4.4,7.9-4.2C201.8,24.8,205.2,28.3,205.2,33.7"></path>						<path class="st1" d="M232.8,36.8c0,7.2-5.1,12-12.8,12c-7.7,0-12.8-4.8-12.8-12s5.1-11.9,12.8-11.9       C227.6,24.8,232.8,29.6,232.8,36.8 M214.7,36.9c0,3.6,2.1,6.1,5.3,6.1c3.1,0,5.2-2.4,5.2-6.1c0-3.6-2.1-6.1-5.2-6.1       C216.8,30.8,214.7,33.3,214.7,36.9"></path>						<path class="st1" d="M260.3,36.9c0,7.1-4.3,11.8-10.8,11.8c-2.8,0.1-5.5-1.2-7.2-3.4v14.4h-7.5V25.1h7.5v3.1       c1.7-2.2,4.3-3.4,7-3.3C255.9,24.8,260.3,29.7,260.3,36.9 M252.7,36.7c0-3.6-2.1-6.1-5.3-6.1c-3,0-5.2,2.5-5.2,6.1       c0,3.6,2.1,6.1,5.2,6.1C250.6,42.8,252.7,40.3,252.7,36.7"></path>						<path class="st1" d="M175.6,27.2l2.9-6c-3.6-2.2-7.8-3.4-12-3.4c-7.3,0-12.2,3.6-12.2,9.2c0,10.8,16.1,7.6,16.1,12.9       c0,1.7-1.5,2.6-4,2.6c-3.1,0-7.6-1.7-10.7-4.3c-0.9-0.8-1.8-1.6-2.6-2.5c0,0.4,0.1,0.8,0.1,1.2c0,2.2-0.5,4.3-1.6,6.3l0.8,0.7       v0c0.1,0,0.1,0.1,0.2,0.1l0,0l0,0c3.9,3,8.8,4.7,13.8,4.7c6.8,0,12.2-3.2,12.2-9.3c0-11-16.1-8-16.1-13.2       c0-1.5,1.3-2.2,3.4-2.2C168.3,24,172.3,25.3,175.6,27.2"></path>					</g>				</g>			</g>		</g>	</g>	<g transform="translate(124 -33.058)">		<path class="st1" d="M-43.4,104.9h-0.4c-0.3,0-0.5-0.1-0.6-0.4l-3.8-7.4v10.6c0,0.2-0.2,0.4-0.4,0.4c0,0,0,0-0.1,0h-0.4   c-0.1,0-0.2,0-0.3-0.1c-0.1-0.1-0.1-0.2-0.1-0.3V94.9c0-0.1,0-0.2,0.1-0.3c0.1-0.1,0.2-0.1,0.3-0.1h0.5c0.2,0,0.3,0.1,0.4,0.3   l4.5,8.6l4.5-8.6c0.1-0.2,0.2-0.3,0.4-0.3h0.5c0.2,0,0.4,0.1,0.5,0.4c0,0,0,0.1,0,0.1v12.8c0,0.1,0,0.2-0.1,0.3   c-0.1,0.1-0.2,0.1-0.3,0.1h-0.4c-0.2,0-0.4-0.2-0.4-0.4c0,0,0,0,0-0.1V97.2l-3.8,7.4C-42.9,104.8-43.1,104.9-43.4,104.9    M-30.9,97.8c-1.1-0.1-2.2,0.4-3,1.2c-0.8,0.9-1.2,2.1-1.3,3.3l0,0.8l0,0.8c0,1.2,0.5,2.4,1.3,3.3c0.8,0.8,1.9,1.3,3,1.2   c0.7,0,1.4-0.1,2.1-0.4c0.5-0.2,1-0.6,1.4-1c0.3-0.3,0.5-0.6,0.5-1c0-0.1,0-0.2-0.1-0.3c-0.1-0.1-0.2-0.1-0.3-0.1h-0.3   c-0.1,0-0.2,0-0.3,0.1c-0.1,0.1-0.2,0.2-0.3,0.3c-0.3,0.3-0.6,0.6-1,0.9c-0.5,0.3-1.1,0.4-1.8,0.4c-0.6,0-1.1-0.2-1.6-0.5   c-0.5-0.3-0.8-0.8-1.1-1.3c-0.3-0.5-0.4-1.1-0.4-1.7v-0.2h7c0.1,0,0.2,0,0.3-0.1c0.1-0.1,0.1-0.2,0.1-0.3v-0.3   c0.1-1.3-0.3-2.6-1.1-3.7C-28.5,98.2-29.7,97.7-30.9,97.8 M-34,102.5L-34,102.5c0-1,0.3-1.9,0.8-2.6c0.6-0.7,1.4-1,2.3-1   c0.9,0,1.7,0.3,2.3,1c0.6,0.7,0.9,1.6,0.9,2.5v0.1H-34z M-20.5,98c-1.1-0.1-2.1,0.4-2.7,1.4v-0.9c0-0.2-0.2-0.4-0.4-0.5   c0,0,0,0,0,0H-24c-0.1,0-0.2,0-0.3,0.1c-0.1,0.1-0.1,0.2-0.1,0.3v9.3c0,0.2,0.2,0.4,0.4,0.4c0,0,0,0,0.1,0h0.3   c0.1,0,0.2,0,0.3-0.1c0.1-0.1,0.1-0.2,0.1-0.3v-6.1c-0.1-1.3,0.9-2.4,2.2-2.5c0.1,0,0.2,0,0.4,0h0.8c0.1,0,0.2,0,0.3-0.1   c0.1-0.1,0.1-0.2,0.1-0.3v-0.3c0-0.2-0.1-0.4-0.4-0.4c0,0,0,0-0.1,0L-20.5,98z M-17.5,103.8l0-0.7l0-0.7c0-1,0.3-1.9,0.9-2.6   c0.6-0.6,1.4-0.9,2.2-0.9c0.6,0,1.2,0.1,1.8,0.5c0.5,0.4,0.9,0.9,1.1,1.5c0,0.1,0.1,0.2,0.2,0.3c0.1,0.1,0.2,0.1,0.3,0.1h0.3   c0.1,0,0.2,0,0.3-0.1c0.1-0.1,0.1-0.2,0.1-0.3c0-0.5-0.2-1-0.5-1.5c-0.3-0.5-0.8-0.9-1.4-1.2c-0.7-0.3-1.4-0.5-2.2-0.5   c-1.2-0.1-2.3,0.4-3.2,1.2c-0.8,0.9-1.2,2.1-1.2,3.3l0,0.8l0,0.8c0,1.2,0.4,2.4,1.2,3.3c0.8,0.8,2,1.3,3.2,1.2   c0.8,0,1.5-0.1,2.2-0.5c0.6-0.3,1-0.7,1.4-1.2c0.3-0.4,0.5-0.9,0.5-1.5c0-0.1,0-0.2-0.1-0.3c-0.1-0.1-0.2-0.1-0.3-0.1H-11   c-0.1,0-0.2,0-0.3,0.1c-0.1,0.1-0.1,0.2-0.2,0.3c-0.2,0.6-0.6,1.2-1.1,1.5c-0.5,0.3-1.2,0.5-1.8,0.5c-0.8,0-1.7-0.3-2.2-0.9   C-17.2,105.7-17.5,104.7-17.5,103.8 M-6.8,99.4v-4.6c0-0.2-0.1-0.4-0.4-0.4c0,0,0,0-0.1,0h-0.3c-0.2,0-0.4,0.2-0.4,0.4   c0,0,0,0,0,0.1v13c0,0.2,0.2,0.4,0.4,0.4c0,0,0,0,0.1,0h0.3c0.2,0,0.4-0.1,0.4-0.4c0,0,0,0,0-0.1v-5.5c-0.1-0.9,0.3-1.8,0.8-2.5   c0.6-0.6,1.4-0.9,2.3-0.9c0.8-0.1,1.7,0.3,2.2,0.9c0.6,0.7,0.8,1.6,0.8,2.5v5.5c0,0.2,0.1,0.4,0.4,0.4c0,0,0,0,0.1,0H0   c0.1,0,0.2,0,0.3-0.1c0.1-0.1,0.1-0.2,0.1-0.3v-5.6c0-1.1-0.3-2.3-1-3.2c-0.7-0.8-1.8-1.3-3-1.2c-0.7,0-1.3,0.1-2,0.4   C-6,98.5-6.5,98.9-6.8,99.4 M9,99.1v-0.7C9,98.2,8.9,98,8.7,98c0,0,0,0-0.1,0H8.3c-0.2,0-0.4,0.1-0.4,0.4c0,0,0,0,0,0.1v9.3   c0,0.1,0,0.2,0.1,0.3c0.1,0.1,0.2,0.1,0.3,0.1h0.3c0.2,0,0.4-0.1,0.4-0.4c0,0,0,0,0-0.1v-5.5c-0.1-0.9,0.2-1.8,0.8-2.5   c0.5-0.5,1.1-0.8,1.8-0.8c0.7,0,1.4,0.3,1.9,0.8c0.6,0.7,0.9,1.6,0.8,2.5v5.5c0,0.2,0.1,0.4,0.4,0.4c0,0,0,0,0.1,0h0.3   c0.1,0,0.2,0,0.3-0.1c0.1-0.1,0.1-0.2,0.1-0.3v-5.5c-0.1-0.9,0.2-1.8,0.8-2.5c0.5-0.5,1.1-0.8,1.8-0.8c0.7,0,1.4,0.2,1.9,0.8   c0.6,0.7,0.8,1.6,0.7,2.5v5.5c0,0.2,0.1,0.4,0.4,0.4c0,0,0,0,0.1,0h0.3c0.1,0,0.2,0,0.3-0.1c0.1-0.1,0.1-0.2,0.1-0.3v-5.7   c0.1-1.1-0.3-2.3-1-3.1c-0.7-0.7-1.6-1.1-2.6-1.1c-0.7,0-1.4,0.2-2,0.5c-0.6,0.3-1,0.8-1.3,1.3c-0.6-1.2-1.8-1.9-3.1-1.8   c-0.6,0-1.1,0.1-1.6,0.3C9.7,98.4,9.3,98.7,9,99.1 M30.9,107.8c0,0.2,0.2,0.4,0.4,0.4c0,0,0,0,0.1,0h0.3c0.2,0,0.4-0.1,0.4-0.4   c0,0,0,0,0-0.1v-6.5c0-0.9-0.3-1.8-0.9-2.4c-0.8-0.7-1.9-1.1-3-1c-0.7,0-1.4,0.1-2,0.4c-0.5,0.2-0.9,0.6-1.2,1   c-0.2,0.3-0.4,0.6-0.4,1c0,0.1,0,0.2,0.1,0.3c0.1,0.1,0.2,0.1,0.3,0.1h0.3c0.1,0,0.2,0,0.3-0.1c0.1-0.1,0.2-0.2,0.2-0.3   c0.1-0.4,0.4-0.7,0.8-0.9c0.5-0.3,1.1-0.4,1.6-0.4c0.7-0.1,1.4,0.1,2,0.6c0.5,0.4,0.7,1,0.7,1.7v0.7l-3.1,0.4   c-1,0.1-2,0.5-2.8,1.1c-0.7,0.5-1.1,1.3-1,2.1c0,0.5,0.2,1,0.5,1.5c0.3,0.5,0.8,0.8,1.3,1.1c0.5,0.3,1.1,0.4,1.7,0.4   c0.8,0,1.5-0.1,2.2-0.5c0.5-0.3,0.9-0.6,1.3-1.1L30.9,107.8z M30.9,103.6c0.1,1-0.3,2-0.9,2.7c-1.1,1.1-2.8,1.2-4.1,0.5   c-0.7-0.4-1-1.4-0.5-2.2c0.1-0.2,0.4-0.4,0.6-0.6c0.8-0.4,1.6-0.7,2.4-0.7l2.5-0.4L30.9,103.6z M41.8,99.4c-0.8-1-2-1.6-3.3-1.5   c-1.2-0.1-2.4,0.4-3.1,1.4c-0.7,1-1.1,2.2-1.1,3.4l0,0.5l0,0.5c0,1.2,0.4,2.4,1.1,3.3c0.7,1,1.9,1.5,3.1,1.4   c1.3,0.1,2.5-0.5,3.3-1.5v0.9c0,0.2,0.2,0.4,0.4,0.4c0,0,0,0,0.1,0h0.3c0.2,0,0.4-0.1,0.4-0.4c0,0,0,0,0-0.1v-13   c0-0.2-0.1-0.4-0.4-0.4c0,0,0,0-0.1,0h-0.3c-0.2,0-0.4,0.2-0.4,0.4c0,0,0,0,0,0.1L41.8,99.4z M41.8,102.3c0,0.1,0,0.4,0,0.8   s0,0.6,0,0.8c0,0.9-0.3,1.7-0.8,2.4c-0.6,0.7-1.4,1.1-2.3,1c-1,0.1-1.9-0.4-2.4-1.2c-0.5-0.9-0.7-1.9-0.7-3l0-0.5   c0-0.9,0.3-1.8,0.8-2.6c0.6-0.7,1.4-1.1,2.3-1c0.6,0,1.2,0.1,1.7,0.5c0.5,0.3,0.8,0.7,1.1,1.2C41.7,101.2,41.8,101.7,41.8,102.3    M49.6,97.8c-1.1-0.1-2.2,0.4-3,1.2c-0.8,0.9-1.2,2.1-1.3,3.3l0,0.8l0,0.8c0,1.2,0.5,2.4,1.3,3.3c0.8,0.8,1.9,1.3,3,1.2   c0.7,0,1.4-0.1,2.1-0.4c0.5-0.2,1-0.6,1.4-1c0.3-0.3,0.5-0.6,0.5-1c0-0.1,0-0.2-0.1-0.3c-0.1-0.1-0.2-0.1-0.3-0.1h-0.3   c-0.1,0-0.2,0-0.3,0.1c-0.1,0.1-0.2,0.2-0.3,0.3c-0.3,0.3-0.6,0.6-1,0.9c-0.5,0.3-1.1,0.4-1.8,0.4c-0.6,0-1.1-0.2-1.6-0.5   c-0.5-0.3-0.8-0.8-1.1-1.3c-0.3-0.5-0.4-1.1-0.4-1.7v-0.2h7c0.1,0,0.2,0,0.3-0.1c0.1-0.1,0.1-0.2,0.1-0.3v-0.3   c0.1-1.3-0.3-2.6-1.1-3.7C52,98.3,50.8,97.8,49.6,97.8 M46.5,102.5L46.5,102.5c0-1,0.3-1.9,0.8-2.6c0.6-0.7,1.4-1,2.3-1   c0.9,0,1.7,0.3,2.3,1c0.6,0.7,0.9,1.6,0.9,2.5v0.1H46.5z M64.6,97.8c-1.1,0-2.2,0.4-3,1.2c-0.8,0.9-1.2,2.1-1.3,3.3l0,0.8l0,0.8   c0,1.2,0.5,2.4,1.3,3.3c0.8,0.8,1.9,1.3,3,1.2c0.7,0,1.4-0.1,2.1-0.4c0.5-0.2,1-0.6,1.4-1c0.3-0.3,0.5-0.6,0.5-1   c0-0.1,0-0.2-0.1-0.3c-0.1-0.1-0.2-0.1-0.3-0.1h-0.3c-0.1,0-0.2,0-0.3,0.1c-0.1,0.1-0.2,0.2-0.3,0.3c-0.3,0.3-0.6,0.6-1,0.9   c-0.5,0.3-1.1,0.4-1.8,0.4c-0.6,0-1.1-0.2-1.6-0.5c-0.5-0.3-0.8-0.8-1.1-1.3c-0.3-0.5-0.4-1.1-0.4-1.7v-0.2h7c0.1,0,0.2,0,0.3-0.1   c0.1-0.1,0.1-0.2,0.1-0.3v-0.3c0.1-1.3-0.3-2.6-1.1-3.7C67,98.2,65.8,97.7,64.6,97.8 M61.5,102.5L61.5,102.5c0-1,0.3-1.9,0.8-2.6   c0.6-0.7,1.4-1,2.3-1c0.9,0,1.7,0.3,2.3,1c0.6,0.7,0.9,1.6,0.9,2.5v0.1H61.5z M77.4,107.7c0,0.2,0.1,0.4,0.4,0.4c0,0,0,0,0.1,0   h0.3c0.1,0,0.2,0,0.3-0.1c0.1-0.1,0.1-0.2,0.1-0.3v-6.5c0-0.9-0.3-1.8-0.9-2.4c-0.8-0.7-1.9-1.1-3-1c-0.7,0-1.4,0.1-2,0.4   c-0.5,0.2-0.9,0.6-1.2,1c-0.2,0.3-0.4,0.6-0.4,1c0,0.1,0,0.2,0.1,0.3c0.1,0.1,0.2,0.1,0.3,0.1h0.3c0.1,0,0.2,0,0.3-0.1   c0.1-0.1,0.2-0.2,0.2-0.3c0.1-0.4,0.4-0.7,0.8-0.9c0.5-0.3,1.1-0.4,1.6-0.4c0.7-0.1,1.4,0.1,2,0.6c0.5,0.4,0.7,1,0.7,1.7v0.7   l-3.1,0.4c-1,0.1-2,0.5-2.8,1.1c-0.7,0.5-1.1,1.3-1.1,2.1c0,0.5,0.2,1,0.5,1.5c0.3,0.5,0.8,0.8,1.3,1.1c0.5,0.3,1.1,0.4,1.7,0.4   c0.8,0,1.5-0.1,2.2-0.5c0.5-0.3,0.9-0.6,1.3-1.1L77.4,107.7z M77.4,103.6c0.1,1-0.3,2-0.9,2.7c-1.1,1.1-2.8,1.2-4.1,0.5   c-0.7-0.4-1-1.4-0.5-2.1c0.1-0.2,0.4-0.4,0.6-0.6c0.8-0.4,1.6-0.7,2.4-0.7l2.5-0.4L77.4,103.6z M83.9,103.5c0.7,0.1,1.4,0.3,2,0.6   c0.4,0.1,0.7,0.3,1,0.6c0.2,0.2,0.3,0.5,0.3,0.9c0,0.5-0.3,1.1-0.7,1.3c-0.6,0.3-1.3,0.5-2,0.5c-0.6,0-1.2-0.1-1.7-0.3   c-0.4-0.2-0.8-0.6-1-1c-0.1-0.1-0.1-0.2-0.2-0.2c-0.1,0-0.1-0.1-0.2,0H81c-0.1,0-0.2,0-0.3,0.1c-0.1,0.1-0.1,0.2-0.1,0.3   c0.1,0.3,0.2,0.6,0.4,0.9c0.4,0.4,0.8,0.8,1.3,1c0.7,0.3,1.4,0.5,2.2,0.4c0.7,0,1.4-0.1,2.1-0.4c0.5-0.2,1-0.6,1.3-1   c0.3-0.4,0.5-0.9,0.5-1.5c0-0.7-0.2-1.4-0.7-1.8c-0.8-0.6-1.6-1-2.6-1.1c-0.6-0.1-1.3-0.3-1.9-0.5c-0.3-0.1-0.6-0.3-0.9-0.6   c-0.2-0.2-0.2-0.5-0.2-0.8c0-0.5,0.2-0.9,0.6-1.2c0.5-0.3,1.1-0.5,1.7-0.5c0.5,0,1.1,0.1,1.6,0.3c0.4,0.2,0.7,0.5,0.9,0.9   c0.1,0.2,0.3,0.3,0.4,0.3h0.3c0.1,0,0.2,0,0.3-0.1c0.1-0.1,0.1-0.2,0.1-0.3c0-0.3-0.2-0.6-0.4-0.9c-0.3-0.4-0.7-0.7-1.2-0.9   c-0.6-0.3-1.3-0.4-2-0.4c-0.7,0-1.3,0.1-1.9,0.4c-0.5,0.2-0.9,0.6-1.2,1.1c-0.3,0.4-0.4,0.9-0.4,1.4c0,0.6,0.2,1.3,0.6,1.7   C82.2,103,83,103.3,83.9,103.5 M98.3,98.8l-5.6,12.8c-0.1,0.2-0.3,0.3-0.5,0.3h-0.4c-0.1,0-0.2,0-0.3-0.1   c-0.1-0.1-0.1-0.2-0.1-0.3c0-0.1,0.1-0.3,0.1-0.4l1.5-3.5l-3.8-8.8c-0.1-0.1-0.1-0.3-0.1-0.4c0-0.1,0-0.2,0.1-0.3   c0.1-0.1,0.2-0.1,0.3-0.1h0.4c0.2,0,0.4,0.1,0.5,0.3l3.3,7.7l3.4-7.7c0.1-0.2,0.3-0.3,0.5-0.3h0.4c0.2,0,0.4,0.2,0.4,0.4   C98.4,98.5,98.4,98.7,98.3,98.8"></path>	</g></g></svg>